<svg width="18" height="18" viewBox="0 0 18 18" fill="none" xmlns="http://www.w3.org/2000/svg">
<path d="M10 2.25H7V3H10V2.25Z" stroke="#ff6833" stroke-width="1.5" stroke-linecap="round" stroke-linejoin="round"/>
<path d="M13.7429 3.9299C13.7052 2.8584 12.8306 2 11.75 2H5.25C4.1454 2 3.25 2.8955 3.25 4V14.5C3.25 15.6045 4.1454 16.5 5.25 16.5H9.6178" stroke="#ff6833" stroke-width="1.5" stroke-linecap="round" stroke-linejoin="round"/>
<path d="M16.6252 14.225C16.6252 12.166 16.3892 10.586 15.6252 10.002C14.7502 9.33298 13.4732 9.16398 11.3302 9.76998L10.0002 6.94298C9.70724 6.31698 8.96324 6.04698 8.33724 6.33998C7.71224 6.63198 7.44124 7.37598 7.73324 8.00098L10.2942 13.457L7.57024 12.956C6.98324 12.848 6.40324 13.18 6.19924 13.741C5.96724 14.378 6.29724 15.081 6.93524 15.31L9.55124 16.251" stroke="#ff6833" stroke-width="1.5" stroke-linecap="round" stroke-linejoin="round"/>
</svg>
