<svg width="18" height="18" viewBox="0 0 18 18" fill="none" xmlns="http://www.w3.org/2000/svg">
<path d="M5.75415 9.84739C6.90805 9.60409 8.33624 9.14719 9.99164 10.7675C12.1744 12.904 12.6913 7.98749 15.817 11.2571" stroke="#A4A7AE" stroke-width="1.5" stroke-linecap="round" stroke-linejoin="round"/>
<path d="M13.0009 2.98073L11.4894 2.90943C10.4949 2.86253 9.73561 3.78613 9.97381 4.75273L10.2458 5.85623C10.3052 6.09733 10.2087 6.34993 10.0037 6.48993C9.83812 6.60303 9.62671 6.62513 9.44131 6.54873L8.51422 6.16663C7.78932 5.86783 6.96171 5.96233 6.32281 6.41693C5.75701 6.81943 5.40541 7.45783 5.36761 8.15113L5.29663 9.45323" stroke="#A4A7AE" stroke-width="1.5" stroke-linecap="round" stroke-linejoin="round"/>
<path d="M2.59155 5.74573C3.02015 6.86973 3.97016 8.68833 5.49646 9.68323C5.92236 9.91783 6.90016 10.6811 6.83216 11.8894C6.73896 13.5436 7.35864 13.633 8.15744 14.2274C8.56754 14.5326 8.67206 15.4704 8.61206 16.2104" stroke="#A4A7AE" stroke-width="1.5" stroke-linecap="round" stroke-linejoin="round"/>
<path d="M9 16.25C13.004 16.25 16.25 13.0041 16.25 9C16.25 4.9959 13.004 1.75 9 1.75C4.996 1.75 1.75 4.9959 1.75 9C1.75 13.0041 4.996 16.25 9 16.25Z" stroke="#A4A7AE" stroke-width="1.5" stroke-linecap="round" stroke-linejoin="round"/>
</svg>
