<svg width="18" height="18" viewBox="0 0 18 18" fill="none" xmlns="http://www.w3.org/2000/svg">
<path d="M3.54167 3.61034L1.78787 8.19104C1.63317 8.59524 1.97507 9.01484 2.40217 8.94494L7.27927 8.14634C7.70637 8.07644 7.89657 7.56954 7.62107 7.23584L4.49777 3.45374C4.22427 3.12254 3.69527 3.20914 3.54167 3.61034Z" stroke="#A4A7AE" stroke-width="1.5" stroke-linecap="round" stroke-linejoin="round"/>
<path d="M13.5 7.25C15.0188 7.25 16.25 6.01878 16.25 4.5C16.25 2.98122 15.0188 1.75 13.5 1.75C11.9812 1.75 10.75 2.98122 10.75 4.5C10.75 6.01878 11.9812 7.25 13.5 7.25Z" stroke="#A4A7AE" stroke-width="1.5" stroke-linecap="round" stroke-linejoin="round"/>
<path d="M14.25 12.5167C12.976 13.4383 12.0353 14.7483 11.569 16.25C10.6474 14.976 9.33739 14.0353 7.83569 13.569C9.10969 12.6474 10.0504 11.3374 10.5167 9.83569C11.4383 11.1097 12.7483 12.0504 14.25 12.5167Z" stroke="#A4A7AE" stroke-width="1.5" stroke-linecap="round" stroke-linejoin="round"/>
</svg>
