<svg width="20" height="20" viewBox="0 0 20 20" fill="none" xmlns="http://www.w3.org/2000/svg">
<g clip-path="url(#clip0_0_2507)">
<path d="M4.16667 12.5C3.3901 12.5 3.00181 12.5 2.69553 12.3732C2.28715 12.204 1.96269 11.8795 1.79354 11.4712C1.66667 11.1649 1.66667 10.7766 1.66667 10V4.33335C1.66667 3.39993 1.66667 2.93322 1.84832 2.5767C2.00811 2.2631 2.26308 2.00813 2.57668 1.84834C2.9332 1.66669 3.39991 1.66669 4.33333 1.66669H10C10.7766 1.66669 11.1649 1.66669 11.4711 1.79355C11.8795 1.96271 12.204 2.28717 12.3731 2.69555C12.5 3.00183 12.5 3.39012 12.5 4.16669M10.1667 18.3334H15.6667C16.6001 18.3334 17.0668 18.3334 17.4233 18.1517C17.7369 17.9919 17.9919 17.7369 18.1517 17.4233C18.3333 17.0668 18.3333 16.6001 18.3333 15.6667V10.1667C18.3333 9.23327 18.3333 8.76656 18.1517 8.41004C17.9919 8.09643 17.7369 7.84147 17.4233 7.68168C17.0668 7.50002 16.6001 7.50002 15.6667 7.50002H10.1667C9.23325 7.50002 8.76654 7.50002 8.41002 7.68168C8.09641 7.84147 7.84145 8.09643 7.68166 8.41004C7.5 8.76656 7.5 9.23327 7.5 10.1667V15.6667C7.5 16.6001 7.5 17.0668 7.68166 17.4233C7.84145 17.7369 8.09641 17.9919 8.41002 18.1517C8.76654 18.3334 9.23325 18.3334 10.1667 18.3334Z" stroke="#101828" stroke-width="1.66667" stroke-linecap="round" stroke-linejoin="round"/>
</g>
<defs>
<clipPath id="clip0_0_2507">
<rect width="20" height="20" fill="white"/>
</clipPath>
</defs>
</svg>
