<svg width="54" height="54" viewBox="0 0 54 54" fill="none" xmlns="http://www.w3.org/2000/svg">
<g filter="url(#filter0_d_0_2544)">
<path d="M2 26C2 12.1929 13.1929 1 27 1C40.8071 1 52 12.1929 52 26C52 39.8071 40.8071 51 27 51C13.1929 51 2 39.8071 2 26Z" fill="white"/>
<path d="M27 1.5C40.531 1.5 51.5 12.469 51.5 26C51.5 39.531 40.531 50.5 27 50.5C13.469 50.5 2.5 39.531 2.5 26C2.5 12.469 13.469 1.5 27 1.5Z" stroke="#D0D5DD"/>
<path d="M25.3333 26.8333C25.6912 27.3118 26.1478 27.7077 26.6721 27.9941C27.1965 28.2806 27.7763 28.4509 28.3722 28.4936C28.9682 28.5363 29.5663 28.4503 30.1261 28.2415C30.6859 28.0327 31.1943 27.7059 31.6167 27.2833L34.1167 24.7833C34.8757 23.9975 35.2956 22.945 35.2862 21.8525C35.2767 20.76 34.8385 19.715 34.0659 18.9424C33.2934 18.1699 32.2483 17.7317 31.1559 17.7222C30.0634 17.7127 29.0109 18.1327 28.225 18.8917L26.7917 20.3167M28.6667 25.1667C28.3088 24.6882 27.8522 24.2924 27.3279 24.0059C26.8036 23.7194 26.2238 23.5491 25.6278 23.5064C25.0319 23.4637 24.4337 23.5497 23.8739 23.7585C23.3141 23.9673 22.8058 24.2941 22.3833 24.7167L19.8833 27.2167C19.1244 28.0025 18.7044 29.055 18.7139 30.1475C18.7234 31.24 19.1616 32.2851 19.9341 33.0576C20.7066 33.8301 21.7517 34.2683 22.8442 34.2778C23.9367 34.2873 24.9892 33.8673 25.775 33.1083L27.2 31.6833" stroke="#344054" stroke-width="1.66667" stroke-linecap="round" stroke-linejoin="round"/>
</g>
<defs>
<filter id="filter0_d_0_2544" x="0" y="0" width="54" height="54" filterUnits="userSpaceOnUse" color-interpolation-filters="sRGB">
<feFlood flood-opacity="0" result="BackgroundImageFix"/>
<feColorMatrix in="SourceAlpha" type="matrix" values="0 0 0 0 0 0 0 0 0 0 0 0 0 0 0 0 0 0 127 0" result="hardAlpha"/>
<feOffset dy="1"/>
<feGaussianBlur stdDeviation="1"/>
<feComposite in2="hardAlpha" operator="out"/>
<feColorMatrix type="matrix" values="0 0 0 0 0.0627451 0 0 0 0 0.0941176 0 0 0 0 0.156863 0 0 0 0.05 0"/>
<feBlend mode="normal" in2="BackgroundImageFix" result="effect1_dropShadow_0_2544"/>
<feBlend mode="normal" in="SourceGraphic" in2="effect1_dropShadow_0_2544" result="shape"/>
</filter>
</defs>
</svg>
