<svg width="54" height="54" viewBox="0 0 54 54" fill="none" xmlns="http://www.w3.org/2000/svg">
<g filter="url(#filter0_d_0_2549)">
<path d="M2 26C2 12.1929 13.1929 1 27 1C40.8071 1 52 12.1929 52 26C52 39.8071 40.8071 51 27 51C13.1929 51 2 39.8071 2 26Z" fill="white"/>
<path d="M27 1.5C40.531 1.5 51.5 12.469 51.5 26C51.5 39.531 40.531 50.5 27 50.5C13.469 50.5 2.5 39.531 2.5 26C2.5 12.469 13.469 1.5 27 1.5Z" stroke="#D0D5DD"/>
<path d="M27 20.1667V31.8334M21.1667 26H32.8333" stroke="#344054" stroke-width="1.66667" stroke-linecap="round" stroke-linejoin="round"/>
</g>
<defs>
<filter id="filter0_d_0_2549" x="0" y="0" width="54" height="54" filterUnits="userSpaceOnUse" color-interpolation-filters="sRGB">
<feFlood flood-opacity="0" result="BackgroundImageFix"/>
<feColorMatrix in="SourceAlpha" type="matrix" values="0 0 0 0 0 0 0 0 0 0 0 0 0 0 0 0 0 0 127 0" result="hardAlpha"/>
<feOffset dy="1"/>
<feGaussianBlur stdDeviation="1"/>
<feComposite in2="hardAlpha" operator="out"/>
<feColorMatrix type="matrix" values="0 0 0 0 0.0627451 0 0 0 0 0.0941176 0 0 0 0 0.156863 0 0 0 0.05 0"/>
<feBlend mode="normal" in2="BackgroundImageFix" result="effect1_dropShadow_0_2549"/>
<feBlend mode="normal" in="SourceGraphic" in2="effect1_dropShadow_0_2549" result="shape"/>
</filter>
</defs>
</svg>
