<svg width="24" height="24" viewBox="0 0 24 24" fill="none" xmlns="http://www.w3.org/2000/svg">
<path d="M9 6.33333V4C9 2.34267 10.3427 1 12 1C13.6573 1 15 2.34267 15 4V6.33333" stroke="#E04F16" stroke-width="1.5" stroke-linecap="round" stroke-linejoin="round"/>
<path d="M15.3333 22.3333H14.6666C13.378 22.3333 12.3333 21.2886 12.3333 20V18.6666C12.3333 17.378 13.378 16.3333 14.6666 16.3333H15.3333" stroke="#E04F16" stroke-width="1.5" stroke-linecap="round" stroke-linejoin="round"/>
<path d="M19.3333 22.3333H20C21.2886 22.3333 22.3333 21.2886 22.3333 20V18.6666C22.3333 17.378 21.2886 16.3333 20 16.3333H19.3333" stroke="#E04F16" stroke-width="1.5" stroke-linecap="round" stroke-linejoin="round"/>
<path d="M19.8551 12.3333L19.5453 8.76784C19.4253 7.3905 18.272 6.33197 16.8893 6.33197H7.11195C5.72928 6.33197 4.5746 7.3893 4.45594 8.76784L3.58662 18.7679C3.45062 20.3252 4.67995 21.6653 6.24262 21.6653H8.58368" stroke="#E04F16" stroke-width="1.5" stroke-linecap="round" stroke-linejoin="round"/>
<path d="M15.6667 19.3333H19" stroke="#E04F16" stroke-width="1.5" stroke-linecap="round" stroke-linejoin="round"/>
</svg>
