<svg width="24" height="24" viewBox="0 0 24 24" fill="none" xmlns="http://www.w3.org/2000/svg">
<path d="M5 20.6667C4.448 20.6667 4 20.2187 4 19.6667V15C4 14.448 4.448 14 5 14C5.552 14 6 14.448 6 15V19.6667C6 20.2187 5.552 20.6667 5 20.6667Z" fill="#A4A7AE"/>
<path d="M19 20.6667C18.448 20.6667 18 20.2187 18 19.6667V11C18 10.448 18.448 10 19 10C19.552 10 20 10.448 20 11V19.6667C20 20.2187 19.552 20.6667 19 20.6667Z" fill="#A4A7AE"/>
<path d="M9.66667 20.6667C9.11467 20.6667 8.66667 20.2187 8.66667 19.6667V11C8.66667 10.448 9.11467 10 9.66667 10C10.2187 10 10.6667 10.448 10.6667 11V19.6667C10.6667 20.2187 10.2187 20.6667 9.66667 20.6667Z" fill="#A4A7AE"/>
<path d="M14.3333 20.6667C13.7813 20.6667 13.3333 20.2187 13.3333 19.6667V15C13.3333 14.448 13.7813 14 14.3333 14C14.8853 14 15.3333 14.448 15.3333 15V19.6667C15.3333 20.2187 14.8853 20.6667 14.3333 20.6667Z" fill="#A4A7AE"/>
<path d="M3.66667 11.3333C3.41067 11.3333 3.15467 11.236 2.96001 11.04C2.56934 10.6493 2.56934 10.016 2.96001 9.62534L7.82134 4.764C8.47067 4.11467 9.52801 4.11467 10.1787 4.764L14.3333 8.91867L19.6267 3.62534C20.0173 3.23467 20.6507 3.23467 21.0413 3.62534C21.432 4.016 21.432 4.64934 21.0413 5.04L15.5133 10.568C14.864 11.2173 13.8067 11.2173 13.156 10.568L9.00134 6.41334L4.37467 11.04C4.18001 11.2347 3.92267 11.3333 3.66667 11.3333Z" fill="#A4A7AE"/>
</svg>
