<svg width="50" height="50" viewBox="0 0 50 50" fill="none" xmlns="http://www.w3.org/2000/svg">
<path d="M35.7838 18.0489C38.9991 20.3555 42.938 21.7127 47.1922 21.7127V13.4971C46.3871 13.4973 45.5841 13.413 44.7964 13.2456V19.7124C40.5425 19.7124 36.6041 18.3552 33.3879 16.0488V32.8143C33.3879 41.2013 26.6131 47.9998 18.2564 47.9998C15.1384 47.9998 12.2402 47.0538 9.83276 45.4314C12.5805 48.2509 16.4124 50 20.6518 50C29.009 50 35.7841 43.2015 35.7841 34.8141V18.0489H35.7838ZM38.7393 9.76042C37.0961 7.95882 36.0172 5.63059 35.7838 3.05663V1.99994H33.5134C34.0849 5.27144 36.0342 8.06642 38.7393 9.76042ZM15.1184 38.9954C14.2003 37.7874 13.7042 36.3096 13.7064 34.7901C13.7064 30.9542 16.8051 27.844 20.6282 27.844C21.3407 27.8439 22.0489 27.9533 22.7279 28.1695V19.7704C21.9344 19.6612 21.1335 19.6149 20.333 19.6319V26.1694C19.6535 25.9532 18.945 25.8434 18.2323 25.8441C14.4093 25.8441 11.3107 28.9539 11.3107 32.7903C11.3107 35.5029 12.8596 37.8514 15.1184 38.9954Z" fill="#FF004F"/>
<path d="M33.3885 16.0486C36.6046 18.355 40.543 19.7122 44.7969 19.7122V13.2454C42.4224 12.7378 40.3203 11.4925 38.7399 9.76042C36.0345 8.06625 34.0854 5.27127 33.5139 1.99994H27.5502V34.8138C27.5367 38.6392 24.4432 41.7367 20.6284 41.7367C18.3804 41.7367 16.3832 40.6613 15.1184 38.9954C12.8598 37.8514 11.3109 35.5028 11.3109 32.7905C11.3109 28.9544 14.4095 25.8442 18.2325 25.8442C18.965 25.8442 19.671 25.9587 20.3332 26.1696V19.6321C12.1234 19.8023 5.52063 26.5344 5.52063 34.814C5.52063 38.9471 7.16486 42.6939 9.83347 45.4315C12.2409 47.0538 15.1391 48 18.2571 48C26.614 48 33.3886 41.2012 33.3886 32.8143V16.0486H33.3885Z" fill="black"/>
<path d="M44.797 13.2454V11.4968C42.6557 11.5001 40.5566 10.8983 38.7399 9.76028C40.3481 11.5272 42.4657 12.7456 44.797 13.2454ZM33.514 1.99997C33.4594 1.68732 33.4176 1.37261 33.3885 1.0567V0H25.1542V32.8142C25.141 36.6391 22.0478 39.7366 18.2326 39.7366C17.1125 39.7366 16.055 39.4698 15.1184 38.9956C16.3833 40.6613 18.3804 41.7366 20.6284 41.7366C24.4429 41.7366 27.5369 38.6394 27.5502 34.814V1.99997H33.514ZM20.3336 19.6321V17.7706C19.6456 17.6762 18.9519 17.6289 18.2574 17.6292C9.89982 17.629 3.125 24.4279 3.125 32.8142C3.125 38.0719 5.78762 42.7056 9.83369 45.4312C7.16508 42.6937 5.52085 38.9467 5.52085 34.8138C5.52085 26.5344 12.1234 19.8023 20.3336 19.6321Z" fill="#00F2EA"/>
</svg>
