<svg width="50" height="50" viewBox="0 0 50 50" fill="none" xmlns="http://www.w3.org/2000/svg">
<g clip-path="url(#clip0_0_2532)">
<rect width="50" height="50" rx="6" fill="url(#paint0_radial_0_2532)"/>
<rect width="50" height="50" rx="6" fill="url(#paint1_radial_0_2532)"/>
<path d="M0 0H50V50H0V0Z" fill="url(#paint2_radial_0_2532)"/>
<path d="M33.975 17.725C33.975 18.802 33.102 19.675 32.025 19.675C30.948 19.675 30.075 18.802 30.075 17.725C30.075 16.648 30.948 15.775 32.025 15.775C33.102 15.775 33.975 16.648 33.975 17.725Z" fill="white"/>
<path fill-rule="evenodd" clip-rule="evenodd" d="M24.875 31.375C28.4648 31.375 31.375 28.4648 31.375 24.875C31.375 21.2851 28.4648 18.375 24.875 18.375C21.2851 18.375 18.375 21.2851 18.375 24.875C18.375 28.4648 21.2851 31.375 24.875 31.375ZM24.875 28.775C27.0289 28.775 28.775 27.0289 28.775 24.875C28.775 22.7211 27.0289 20.975 24.875 20.975C22.7211 20.975 20.975 22.7211 20.975 24.875C20.975 27.0289 22.7211 28.775 24.875 28.775Z" fill="white"/>
<path fill-rule="evenodd" clip-rule="evenodd" d="M11.875 24.355C11.875 19.9866 11.875 17.8024 12.7251 16.1339C13.473 14.6662 14.6662 13.473 16.1339 12.7251C17.8024 11.875 19.9866 11.875 24.355 11.875H25.395C29.7634 11.875 31.9476 11.875 33.6161 12.7251C35.0838 13.473 36.277 14.6662 37.0248 16.1339C37.875 17.8024 37.875 19.9866 37.875 24.355V25.395C37.875 29.7634 37.875 31.9476 37.0248 33.6161C36.277 35.0838 35.0838 36.277 33.6161 37.0248C31.9476 37.875 29.7634 37.875 25.395 37.875H24.355C19.9866 37.875 17.8024 37.875 16.1339 37.0248C14.6662 36.277 13.473 35.0838 12.7251 33.6161C11.875 31.9476 11.875 29.7634 11.875 25.395V24.355ZM24.355 14.475H25.395C27.6221 14.475 29.1361 14.477 30.3063 14.5726C31.4462 14.6658 32.0291 14.8346 32.4357 15.0418C33.4142 15.5403 34.2097 16.3358 34.7082 17.3142C34.9154 17.7209 35.0842 18.3038 35.1774 19.4437C35.273 20.6139 35.275 22.1279 35.275 24.355V25.395C35.275 27.6221 35.273 29.1361 35.1774 30.3063C35.0842 31.4462 34.9154 32.0291 34.7082 32.4357C34.2097 33.4142 33.4142 34.2097 32.4357 34.7082C32.0291 34.9154 31.4462 35.0842 30.3063 35.1774C29.1361 35.273 27.6221 35.275 25.395 35.275H24.355C22.1279 35.275 20.6139 35.273 19.4437 35.1774C18.3038 35.0842 17.7209 34.9154 17.3142 34.7082C16.3358 34.2097 15.5403 33.4142 15.0418 32.4357C14.8346 32.0291 14.6658 31.4462 14.5726 30.3063C14.477 29.1361 14.475 27.6221 14.475 25.395V24.355C14.475 22.1279 14.477 20.6139 14.5726 19.4437C14.6658 18.3038 14.8346 17.7209 15.0418 17.3142C15.5403 16.3358 16.3358 15.5403 17.3142 15.0418C17.7209 14.8346 18.3038 14.6658 19.4437 14.5726C20.6139 14.477 22.1279 14.475 24.355 14.475Z" fill="white"/>
</g>
<defs>
<radialGradient id="paint0_radial_0_2532" cx="0" cy="0" r="1" gradientUnits="userSpaceOnUse" gradientTransform="translate(17.8571 37.5) rotate(-55.3758) scale(45.5707)">
<stop stop-color="#B13589"/>
<stop offset="0.79309" stop-color="#C62F94"/>
<stop offset="1" stop-color="#8A3AC8"/>
</radialGradient>
<radialGradient id="paint1_radial_0_2532" cx="0" cy="0" r="1" gradientUnits="userSpaceOnUse" gradientTransform="translate(16.0714 51.7857) rotate(-65.1363) scale(40.3469)">
<stop stop-color="#E0E8B7"/>
<stop offset="0.444662" stop-color="#FB8A2E"/>
<stop offset="0.71474" stop-color="#E2425C"/>
<stop offset="1" stop-color="#E2425C" stop-opacity="0"/>
</radialGradient>
<radialGradient id="paint2_radial_0_2532" cx="0" cy="0" r="1" gradientUnits="userSpaceOnUse" gradientTransform="translate(-2.67857 1.78571) rotate(-8.1301) scale(69.448 14.8542)">
<stop offset="0.156701" stop-color="#406ADC"/>
<stop offset="0.467799" stop-color="#6A45BE"/>
<stop offset="1" stop-color="#6A45BE" stop-opacity="0"/>
</radialGradient>
<clipPath id="clip0_0_2532">
<path d="M0 25C0 11.1929 11.1929 0 25 0C38.8071 0 50 11.1929 50 25C50 38.8071 38.8071 50 25 50C11.1929 50 0 38.8071 0 25Z" fill="white"/>
</clipPath>
</defs>
</svg>
