<svg width="48" height="46" viewBox="0 0 48 46" fill="none" xmlns="http://www.w3.org/2000/svg">
<path d="M0 10C0 4.47715 4.47715 0 10 0H38C43.5229 0 48 4.47715 48 10V36C48 41.5228 43.5228 46 38 46H10C4.47715 46 0 41.5228 0 36V10Z" fill="white"/>
<path d="M14.5644 45.9552C11.7049 45.9552 8.83403 46.0507 5.97224 45.9438C2.58827 45.8073 0 42.9498 0 39.5417C0 28.5439 0.0203445 17.5439 0 6.53478C0 2.76951 2.92283 0.144068 6.28645 0.0485141C9.80605 -0.0470394 13.3369 0.0280382 16.8678 0.0280382C16.9311 0.0280382 17.0148 -0.00381272 17.0464 0.100841C17.0261 0.289673 16.8362 0.312424 16.7209 0.385227C14.648 1.6115 12.7515 3.07665 11.1578 4.89217C8.52887 7.88618 6.70464 11.3238 6.08752 15.3212C4.99796 22.3762 7.18839 28.3665 12.1434 33.3648C13.0227 34.2612 13.138 34.9574 12.4373 36.1586C11.5896 37.6033 10.2988 38.5839 8.92671 39.4803C8.77978 39.5644 8.63285 39.6691 8.48592 39.7647C8.26665 39.9535 8.40228 40.049 8.5899 40.1332C8.63285 40.2288 8.68484 40.313 8.74813 40.3971C9.95298 41.4732 11.0945 42.6222 12.279 43.7188C12.8351 44.2352 13.3889 44.7744 13.9247 45.3113C14.1439 45.5115 14.5124 45.5752 14.5644 45.9552Z" fill="#3080C3"/>
<path d="M14.5643 45.9567C14.5124 45.5881 14.1462 45.5244 13.9246 45.3037C13.3911 44.7554 12.8351 44.2276 12.279 43.7111C11.0945 42.6145 9.95292 41.4655 8.74808 40.3894C8.68478 40.3052 8.63279 40.221 8.58984 40.1254C11.2618 40.6533 13.8704 40.2938 16.4383 39.5043C17.3086 39.2404 18.1766 38.9765 19.0582 38.7558C19.655 38.5965 20.2834 38.6284 20.8598 38.84C27.5034 41.1379 34.0612 40.9286 40.5149 38.0801C43.1438 36.9106 45.5445 35.2634 47.5767 33.2089C47.6807 33.1042 47.7553 32.945 47.9429 32.9336C48.0378 33.0815 47.9858 33.2385 47.9858 33.3977V39.568C48.0062 43.09 45.1986 45.959 41.6994 45.9909H41.6474C37.8746 46.0113 34.1041 45.9909 30.3313 45.9909H15.1928C14.9825 45.9658 14.7746 45.9567 14.5643 45.9567Z" fill="#3080C3"/>
<path d="M16.199 22.3551C17.7813 22.3551 19.2687 22.3437 20.7471 22.3551C21.5744 22.3665 22.0243 22.7146 22.1102 23.3789C22.2051 24.2116 21.7236 24.7713 20.8217 24.7804C19.1241 24.8009 17.4377 24.7918 15.7401 24.7918C15.2473 24.7918 14.7659 24.8122 14.2731 24.7804C13.665 24.7485 13.0682 24.6211 12.7744 23.9886C12.4805 23.3562 12.6907 22.7874 13.0886 22.2686C14.7026 20.2028 16.3256 18.1234 17.9509 16.0576C18.0458 15.9302 18.1385 15.805 18.2334 15.689C18.1295 15.5093 17.9825 15.5934 17.8559 15.5843C16.7234 15.573 15.5819 15.5843 14.4516 15.573C14.1894 15.573 13.9272 15.5411 13.6763 15.4888C13.0795 15.3523 12.7133 14.7516 12.849 14.1601C12.9439 13.7597 13.2581 13.4321 13.656 13.3365C13.9069 13.2728 14.1691 13.241 14.4313 13.241C16.2962 13.2296 18.1724 13.2296 20.0373 13.241C20.3719 13.2296 20.6974 13.2728 21.0229 13.357C21.7349 13.6004 22.0401 14.2648 21.7553 14.9609C21.5044 15.5616 21.1065 16.078 20.7064 16.5945C19.3343 18.3554 17.9622 20.105 16.5878 21.8455C16.4703 21.9865 16.3663 22.123 16.199 22.3551Z" fill="#3080C3"/>
<path d="M28.3557 16.8059C28.6067 16.4783 28.8689 16.1735 29.2984 16.0893C30.1257 15.9209 30.901 16.4578 30.9123 17.3019C30.944 19.4109 30.9327 21.5198 30.9123 23.6288C30.9123 24.1771 30.5552 24.6617 30.0421 24.821C29.5176 25.0212 28.9209 24.8642 28.575 24.4092C28.3964 24.1885 28.3241 24.1453 28.0732 24.3455C27.1193 25.1258 26.041 25.2623 24.8769 24.8824C23.012 24.2704 22.2479 22.8053 22.0377 21.0239C21.8185 19.0946 22.4559 17.4498 24.1761 16.4374C25.6002 15.5842 27.0447 15.657 28.3557 16.8059ZM24.6463 20.6553C24.6667 21.1194 24.8136 21.5631 25.0871 21.9316C25.6522 22.6915 26.7327 22.8485 27.4968 22.2797C27.6233 22.1842 27.7386 22.0681 27.8426 21.9316C28.4303 21.1308 28.4303 19.8113 27.8426 19.0105C27.5488 18.5987 27.0876 18.3575 26.5948 18.3461C25.442 18.2733 24.635 19.1697 24.6463 20.6553ZM35.6164 20.719C35.5327 18.0094 37.3027 15.9846 39.8186 15.9095C42.4905 15.8254 44.439 17.6295 44.5226 20.264C44.6063 22.9327 42.9833 24.8187 40.4787 25.0735C37.7435 25.3488 35.5734 23.3558 35.6164 20.719ZM38.2453 20.4665C38.225 20.9943 38.3809 21.5107 38.6951 21.943C39.2716 22.7029 40.3498 22.8508 41.1048 22.2592C41.2201 22.1751 41.315 22.0704 41.4077 21.9635C42.0158 21.1627 42.0158 19.8113 41.419 19.0105C41.1251 18.61 40.664 18.3575 40.1712 18.3461C39.0433 18.2824 38.2453 19.147 38.2453 20.4665ZM34.6941 18.6214C34.6941 20.2549 34.7054 21.8907 34.6941 23.5242C34.7054 24.2727 34.1177 24.896 33.374 24.9165C33.2474 24.9165 33.1118 24.9051 32.9852 24.8733C32.4608 24.7368 32.0629 24.1771 32.0629 23.5128V15.1292C32.0629 14.6332 32.0516 14.1487 32.0629 13.6527C32.0742 12.8405 32.5873 12.3127 33.3627 12.3127C34.1584 12.3013 34.6941 12.8291 34.6941 13.6732C34.7054 15.3203 34.6941 16.9766 34.6941 18.6214Z" fill="#3080C3"/>
</svg>
