<svg width="57" height="35" viewBox="0 0 57 35" fill="none" xmlns="http://www.w3.org/2000/svg">
<path d="M48.706 25.0735H48.1731C42.9557 21.7596 37.3386 19.1434 31.4551 17.203C34.2081 15.6987 36.9389 14.4777 40.247 13.2786C43.2443 16.7888 46.0195 20.6695 48.706 25.0735Z" fill="white"/>
<path d="M42.3338 11.5769C38.182 7.12928 33.6306 3.37932 28.2356 0C19.7322 6.38801 13.3603 13.6699 7.41016 24.2875L7.9208 24.2657C17.4232 17.6597 29.0792 13.1467 42.3338 11.5769Z" fill="white"/>
<path d="M8.52796 34.0541C7.46917 34.0541 6.65839 33.2498 6.65839 32.1899C6.65839 31.1585 7.44056 30.3257 8.48026 30.3257C9.02396 30.3257 9.48182 30.5623 9.81567 30.884L10.4929 30.1649C9.9969 29.6917 9.30058 29.3889 8.4898 29.3889C6.78239 29.3889 5.59961 30.6286 5.59961 32.1899C5.59961 33.7513 6.80147 34.9815 8.50888 34.9815C9.51043 34.9815 10.3212 34.5556 10.8077 33.9406L10.0827 33.2971C9.75843 33.7134 9.24335 34.0541 8.52796 34.0541Z" fill="white"/>
<path d="M14.2799 34.0541C13.2211 34.0541 12.4103 33.2498 12.4103 32.1899C12.4103 31.1585 13.1925 30.3257 14.2322 30.3257C14.7759 30.3257 15.2338 30.5623 15.5676 30.884L16.2449 30.1649C15.7489 29.6917 15.0525 29.3889 14.2418 29.3889C12.5343 29.3889 11.3516 30.6286 11.3516 32.1899C11.3516 33.7513 12.5534 34.9909 14.2608 34.9909C15.2624 34.9909 16.0732 34.5651 16.5596 33.95L15.8347 33.3065C15.5104 33.7134 14.9953 34.0541 14.2799 34.0541Z" fill="white"/>
<path d="M18.7141 32.4649H20.5073V31.5281H18.7141V30.402H21.0606V29.4651H17.6553V34.9063H21.1369V33.9789H18.7141V32.4649Z" fill="white"/>
<path d="M23.2944 30.912C23.2944 30.4956 23.7427 30.3253 24.1433 30.3253C24.5058 30.3253 24.8682 30.4767 25.0876 30.6849L25.6313 29.9089C25.1162 29.5304 24.6011 29.3979 24.0384 29.3979C23.1322 29.3979 22.226 29.9563 22.226 30.9309C22.226 31.546 22.5694 31.9151 22.9987 32.1706C23.7331 32.5964 24.7538 32.6816 24.7538 33.3818C24.7538 33.7793 24.4294 34.0631 23.9525 34.0631C23.447 34.0631 22.97 33.8076 22.6648 33.467L21.978 34.1862C22.5408 34.6972 23.2276 35 23.9621 35C24.9445 35 25.8221 34.3281 25.8221 33.3724C25.8221 31.5176 23.2944 31.7921 23.2944 30.912Z" fill="white"/>
<path d="M27.807 30.912C27.807 30.4956 28.2554 30.3253 28.656 30.3253C29.0185 30.3253 29.3809 30.4767 29.6003 30.6849L30.144 29.9089C29.6289 29.5304 29.1138 29.3979 28.5511 29.3979C27.6449 29.3979 26.7387 29.9563 26.7387 30.9309C26.7387 31.546 27.0821 31.9151 27.5114 32.1706C28.2458 32.5964 29.2665 32.6816 29.2665 33.3818C29.2665 33.7793 28.9421 34.0631 28.4652 34.0631C27.9597 34.0631 27.4827 33.8076 27.1775 33.467L26.4907 34.1862C27.0535 34.6972 27.7403 35 28.4747 35C29.4572 35 30.3348 34.3281 30.3348 33.3724C30.3348 31.5176 27.807 31.7921 27.807 30.912Z" fill="white"/>
<path d="M30.9336 30.402H32.3835V34.9063H33.4422V30.402H34.8921V29.4651H30.9336V30.402Z" fill="white"/>
<path d="M50.3745 29.9852C49.9262 29.6634 49.3539 29.4742 48.4859 29.4742H46.8262V34.9153H48.4859C49.3539 34.9153 49.9262 34.7261 50.3745 34.4043C51.0518 33.9028 51.4619 33.0985 51.4619 32.1995C51.4619 31.2911 51.0518 30.4772 50.3745 29.9852ZM50.0025 33.3729C49.6973 33.7514 49.249 33.9785 48.6003 33.9785H47.885V30.4015H48.6003C49.249 30.4015 49.6973 30.6287 50.0025 31.0072C50.2505 31.3194 50.4031 31.7358 50.4031 32.19C50.4031 32.6348 50.2601 33.0606 50.0025 33.3729Z" fill="white"/>
<path d="M53.6931 33.9789V32.4649H55.4863V31.5281H53.6931V30.402H56.0396V29.4651H52.6343V34.9063H56.1159V33.9789H53.6931Z" fill="white"/>
<path d="M3.02372 29.4651H2.26064L2.07941 29.9004L0 34.9063H1.09693L1.49755 33.8654H3.73912L4.13974 34.9063H5.27482L3.17634 29.8626L3.02372 29.4651ZM3.3385 32.938H1.91725L2.6231 31.2252L3.3385 32.938Z" fill="white"/>
<path d="M43.659 29.4651H42.8959L42.7147 29.9004L40.6353 34.9063H41.7322L42.1328 33.8654H44.3744L44.775 34.9063H45.9101L43.8116 29.8626L43.659 29.4651ZM43.9738 32.938H42.5525L43.2584 31.2252L43.9738 32.938Z" fill="white"/>
<path d="M39.7471 30.9882C39.7471 30.1082 39.0889 29.4742 38.0587 29.4742H35.9316V34.9153H36.9904V32.4928H37.6391L38.9363 34.9059H40.1191L38.6501 32.3793C39.1938 32.2373 39.7471 31.8115 39.7471 30.9882ZM36.9904 30.4015H38.0015C38.4212 30.4015 38.6883 30.6665 38.6883 30.9882C38.6883 31.31 38.4594 31.5655 38.0015 31.5655H36.9904V30.4015Z" fill="white"/>
</svg>
