<svg width="205" height="63" viewBox="0 0 205 63" fill="none" xmlns="http://www.w3.org/2000/svg">
<path d="M72.706 39.0735H72.1731C66.9557 35.7596 61.3386 33.1434 55.4551 31.203C58.2081 29.6986 60.9389 28.4777 64.247 27.2786C67.2443 30.7887 70.0195 34.6695 72.706 39.0735Z" fill="white"/>
<path d="M66.3338 25.5769C62.182 21.1293 57.6306 17.3793 52.2356 14C43.7322 20.388 37.3603 27.6699 31.4102 38.2875L31.9208 38.2657C41.4232 31.6597 53.0792 27.1466 66.3338 25.5769Z" fill="white"/>
<path d="M32.528 48.0542C31.4692 48.0542 30.6584 47.2498 30.6584 46.19C30.6584 45.1585 31.4406 44.3258 32.4803 44.3258C33.024 44.3258 33.4818 44.5624 33.8157 44.8841L34.4929 44.1649C33.9969 43.6918 33.3006 43.389 32.4898 43.389C30.7824 43.389 29.5996 44.6286 29.5996 46.19C29.5996 47.7514 30.8015 48.9815 32.5089 48.9815C33.5104 48.9815 34.3212 48.5557 34.8077 47.9406L34.0827 47.2971C33.7584 47.7135 33.2434 48.0542 32.528 48.0542Z" fill="white"/>
<path d="M38.2799 48.0542C37.2211 48.0542 36.4103 47.2498 36.4103 46.19C36.4103 45.1585 37.1925 44.3258 38.2322 44.3258C38.7759 44.3258 39.2338 44.5624 39.5676 44.8841L40.2449 44.1649C39.7489 43.6918 39.0525 43.389 38.2418 43.389C36.5343 43.389 35.3516 44.6286 35.3516 46.19C35.3516 47.7514 36.5534 48.991 38.2608 48.991C39.2624 48.991 40.0732 48.5652 40.5596 47.9501L39.8347 47.3066C39.5104 47.7135 38.9953 48.0542 38.2799 48.0542Z" fill="white"/>
<path d="M42.7141 46.4649H44.5073V45.5281H42.7141V44.402H45.0606V43.4652H41.6553V48.9063H45.1369V47.979H42.7141V46.4649Z" fill="white"/>
<path d="M47.2944 44.912C47.2944 44.4957 47.7427 44.3253 48.1433 44.3253C48.5058 44.3253 48.8682 44.4767 49.0876 44.6849L49.6313 43.909C49.1162 43.5305 48.6011 43.398 48.0384 43.398C47.1322 43.398 46.226 43.9563 46.226 44.931C46.226 45.5461 46.5694 45.9151 46.9987 46.1706C47.7331 46.5964 48.7538 46.6816 48.7538 47.3818C48.7538 47.7793 48.4294 48.0632 47.9525 48.0632C47.447 48.0632 46.97 47.8077 46.6648 47.467L45.978 48.1862C46.5408 48.6972 47.2276 49 47.9621 49C48.9445 49 49.8221 48.3281 49.8221 47.3724C49.8221 45.5177 47.2944 45.7921 47.2944 44.912Z" fill="white"/>
<path d="M51.807 44.912C51.807 44.4957 52.2554 44.3253 52.656 44.3253C53.0185 44.3253 53.3809 44.4767 53.6003 44.6849L54.144 43.909C53.6289 43.5305 53.1138 43.398 52.5511 43.398C51.6449 43.398 50.7387 43.9563 50.7387 44.931C50.7387 45.5461 51.0821 45.9151 51.5114 46.1706C52.2458 46.5964 53.2665 46.6816 53.2665 47.3818C53.2665 47.7793 52.9421 48.0632 52.4652 48.0632C51.9597 48.0632 51.4827 47.8077 51.1775 47.467L50.4907 48.1862C51.0535 48.6972 51.7403 49 52.4747 49C53.4572 49 54.3348 48.3281 54.3348 47.3724C54.3348 45.5177 51.807 45.7921 51.807 44.912Z" fill="white"/>
<path d="M54.9336 44.402H56.3835V48.9063H57.4422V44.402H58.8921V43.4652H54.9336V44.402Z" fill="white"/>
<path d="M74.3745 43.9852C73.9262 43.6635 73.3539 43.4742 72.4859 43.4742H70.8262V48.9154H72.4859C73.3539 48.9154 73.9262 48.7261 74.3745 48.4044C75.0518 47.9028 75.4619 47.0985 75.4619 46.1995C75.4619 45.2911 75.0518 44.4773 74.3745 43.9852ZM74.0025 47.3729C73.6973 47.7514 73.249 47.9785 72.6003 47.9785H71.885V44.4016H72.6003C73.249 44.4016 73.6973 44.6287 74.0025 45.0072C74.2505 45.3195 74.4031 45.7358 74.4031 46.1901C74.4031 46.6348 74.2601 47.0606 74.0025 47.3729Z" fill="white"/>
<path d="M77.6931 47.979V46.4649H79.4863V45.5281H77.6931V44.402H80.0396V43.4652H76.6343V48.9063H80.1159V47.979H77.6931Z" fill="white"/>
<path d="M27.0237 43.4652H26.2606L26.0794 43.9005L24 48.9063H25.0969L25.4976 47.8654H27.7391L28.1397 48.9063H29.2748L27.1763 43.8626L27.0237 43.4652ZM27.3385 46.9381H25.9172L26.6231 45.2253L27.3385 46.9381Z" fill="white"/>
<path d="M67.659 43.4652H66.8959L66.7147 43.9005L64.6353 48.9063H65.7322L66.1328 47.8654H68.3744L68.775 48.9063H69.9101L67.8116 43.8626L67.659 43.4652ZM67.9738 46.9381H66.5525L67.2584 45.2253L67.9738 46.9381Z" fill="white"/>
<path d="M63.7471 44.9883C63.7471 44.1082 63.0889 43.4742 62.0587 43.4742H59.9316V48.9154H60.9904V46.4929H61.6391L62.9363 48.9059H64.1191L62.6501 46.3793C63.1938 46.2374 63.7471 45.8115 63.7471 44.9883ZM60.9904 44.4016H62.0015C62.4212 44.4016 62.6883 44.6665 62.6883 44.9883C62.6883 45.31 62.4594 45.5655 62.0015 45.5655H60.9904V44.4016Z" fill="white"/>
<g clip-path="url(#clip0_519_7595)">
<path d="M149.41 25.0497C149.81 25.1138 151.745 25.07 152.275 25.0653C152.191 26.3671 152.244 28.2756 152.245 29.6265L152.244 37.8892C151.555 37.945 149.689 37.9152 148.984 37.8936C148.893 37.3463 148.345 35.646 148.169 35.0713C147.684 33.4982 147.23 31.76 146.639 30.2337C146.614 30.9647 146.646 31.9024 146.643 32.6532C146.628 34.3581 146.622 36.063 146.626 37.7679L146.614 37.8338C146.473 37.9602 144.095 37.9027 143.718 37.9005C143.77 36.5333 143.726 34.8606 143.727 33.4706L143.727 25.0718C144.822 25.0674 145.918 25.0696 147.014 25.0786C147.134 25.681 147.69 27.2784 147.897 27.9163C148.367 29.3614 148.803 31.0213 149.366 32.4088C149.344 30.9355 149.355 29.4402 149.368 27.9673C149.372 27.4653 149.324 25.3615 149.41 25.0497Z" fill="white"/>
<path d="M178.809 24.8816C181.226 24.8156 182.825 25.9911 182.888 28.5527C182.919 29.5714 182.857 30.6186 182.888 31.6351C182.975 34.4859 183.193 37.9432 179.294 38.0863C178.305 38.1707 177.086 37.852 176.359 37.1636C174.852 35.7369 175.272 33.164 175.235 31.2823C175.177 28.3369 174.879 25.0368 178.809 24.8816ZM179.212 35.8229C179.505 35.6817 179.681 35.525 179.793 35.2066C179.964 34.7184 179.938 27.9691 179.767 27.6281C179.67 27.4349 179.545 27.2733 179.331 27.2053C179.185 27.1592 179.036 27.162 178.885 27.1668C178.672 27.2806 178.422 27.3845 178.339 27.6325C178.13 28.2579 178.129 34.9805 178.382 35.4545C178.462 35.6026 178.616 35.7134 178.776 35.7578C178.915 35.7962 179.068 35.8197 179.212 35.8229Z" fill="white"/>
<path d="M166.367 25.0456C166.696 25.0902 167.359 25.0765 167.685 25.0758C171.323 25.0675 174.847 24.5388 173.889 29.6327C173.742 30.412 173.022 30.8093 172.396 31.1528C173.932 31.7122 173.966 32.6567 173.967 34.0901C173.968 35.3406 173.848 36.704 174.189 37.904C173.226 37.9071 172.223 37.9227 171.264 37.8929L171.097 37.191C170.763 35.8122 171.297 33.7342 170.702 32.5988C170.586 32.3784 169.65 32.3807 169.325 32.3562C169.396 34.0599 169.342 36.1465 169.351 37.8872C168.591 37.9505 167.158 37.9091 166.365 37.9097C166.439 33.7206 166.394 29.2407 166.367 25.0456ZM170.791 29.9004C171.062 29.4399 171.23 27.7993 170.685 27.4518C170.387 27.2626 169.69 27.2761 169.323 27.2669C169.357 28.23 169.346 29.2274 169.346 30.1939C169.981 30.1524 170.267 30.224 170.791 29.9004Z" fill="white"/>
<path d="M160.971 24.8815C162.027 24.7894 163.522 25.0369 164.288 25.7973C165.248 26.7503 165.103 28.2048 165.104 29.4446C164.369 29.4446 162.897 29.4024 162.228 29.4789C162.241 28.9131 162.334 27.8096 161.978 27.3809C161.39 26.6916 160.485 27.4105 160.475 28.2064C160.448 30.4669 160.415 32.753 160.484 35.0122C160.507 35.76 161.389 36.1126 161.891 35.6035C162.338 35.1498 162.138 33.8942 162.151 33.2397L161.131 33.2576C161.14 32.4425 161.141 31.6274 161.133 30.8124C161.92 30.8305 162.769 30.8162 163.561 30.8178L165.094 30.8061L165.1 37.8859C164.468 37.9429 163.165 37.9094 162.484 37.9115L162.474 36.9717C161.859 37.6281 161.364 38.0255 160.436 38.0861C157.957 38.2479 157.423 36.0119 157.436 34.0079C157.446 32.5044 157.445 31.0244 157.435 29.5218C157.426 28.2404 157.454 26.98 158.367 25.9621C159.039 25.2253 160.002 24.9292 160.971 24.8815Z" fill="white"/>
<path d="M188.756 25.0729L191.75 25.0717C191.724 25.807 191.744 26.6758 191.743 27.4212L191.744 31.994C191.744 33.0222 191.82 34.6645 191.579 35.6183C191.442 36.1715 191.154 36.6761 190.749 37.0764C188.766 39.0595 184.407 38.113 184.18 35.0136C184.092 33.8126 184.12 32.6593 184.12 31.4588L184.116 25.0759L187.13 25.0732C187.168 26.4017 186.978 34.9413 187.29 35.4422C187.365 35.5634 187.515 35.6606 187.653 35.6902C188.047 35.7745 188.403 35.5454 188.72 35.347C188.818 34.6449 188.775 32.7354 188.775 31.9592L188.756 25.0729Z" fill="white"/>
<path d="M139.476 25.0722L142.493 25.0701L142.494 27.3661L142.496 31.9031C142.499 33.047 142.584 34.4283 142.342 35.5313C141.787 37.9347 138.939 38.6067 136.899 37.7438C134.398 36.6852 134.871 33.862 134.871 31.6034C134.882 29.4276 134.878 27.2519 134.858 25.0763L137.855 25.0666C137.846 25.3731 137.838 25.6797 137.832 25.9863C137.782 28.9085 137.81 31.8973 137.876 34.8213C137.888 35.3316 138.03 35.717 138.603 35.6913C139.112 35.6686 139.438 35.4896 139.452 34.9221C139.496 33.8093 139.477 32.6943 139.477 31.5822L139.476 25.0722Z" fill="white"/>
<path d="M193.01 25.0687C197.531 25.2983 201.527 23.8668 200.675 30.4749C200.598 31.0668 200.264 31.6301 199.856 32.0469C198.912 33.0105 197.256 32.8435 196 32.8252L195.985 32.9256C196.045 34.4516 195.996 36.3327 196.004 37.8911C195.094 37.9352 193.939 37.9032 193.011 37.9025C193.078 33.7254 193.054 29.2478 193.01 25.0687ZM196.004 30.528C196.542 30.5342 197.092 30.6116 197.511 30.2469C197.909 29.7466 197.931 28.011 197.413 27.5667C197.197 27.3809 196.288 27.3975 195.969 27.3826C196.027 28.361 196.002 29.5338 196.004 30.528Z" fill="white"/>
<path d="M129.452 24.8806C130.537 24.8288 131.831 24.975 132.643 25.7665C133.585 26.6853 133.501 28.063 133.505 29.2729C132.577 29.2551 131.649 29.2549 130.721 29.2725C130.726 28.5547 130.768 26.3254 129.106 27.4163C128.95 27.519 128.774 27.9675 128.808 28.1448C129.014 29.2023 130.39 29.8758 131.142 30.5528C131.693 31.0751 132.548 31.6706 132.98 32.2887C134.783 34.8633 133.278 37.967 130.159 38.0757C128.986 38.1847 127.588 37.9238 126.731 37.057C125.739 36.0531 125.836 34.7991 125.847 33.5057C126.808 33.5191 127.806 33.5031 128.77 33.5012C128.76 34.153 128.699 34.7873 128.902 35.4024L128.953 35.4513C129.429 35.904 129.998 36.0093 130.436 35.4775C131.606 34.0563 128.86 32.5247 127.999 31.7681C126.865 30.7714 126.177 30.4282 126.072 28.8178C125.913 26.3656 126.956 24.9873 129.452 24.8806Z" fill="white"/>
<path d="M92.1162 26.4157C92.9626 26.2903 93.5351 26.2214 94.3678 25.9035C98.2845 24.4082 101.057 20.8052 103.611 17.6577C104.35 16.7475 105.778 14.7403 106.561 14.0281C109.628 17.9554 115.266 25.8449 120.495 26.4729L120.528 26.4768C120.124 27.1885 119.36 27.8674 118.565 28.0751C117.342 28.3948 116.332 28.0073 115.297 27.4001C114.203 26.7588 113.128 26.1073 111.994 25.5616C108.977 24.1093 105.87 24.0027 102.676 24.9598C100 25.7619 97.4086 26.8441 95.8325 29.2663C96.6673 29.1807 98.0299 29.223 98.9067 29.2237L104.322 29.2267L113.3 29.2247C114.765 29.2242 116.44 29.1822 117.889 29.228C117.875 29.6048 117.867 29.9818 117.864 30.3588C118.711 30.2999 119.734 30.3187 120.599 30.3164C120.587 32.3714 120.561 34.4975 120.612 36.5496C119.748 36.739 119.125 36.7161 118.248 37.0697C113.114 39.1392 109.974 44.9568 106.519 48.9531C103.23 44.9387 99.7104 39.996 95.063 37.4365C94.1604 36.9394 93.1853 36.6667 92.1781 36.4737C93.8758 33.6471 96.5931 34.9299 98.6798 36.2995C99.5525 36.8724 100.972 37.5654 101.955 37.9278C103.802 38.5911 105.783 38.7944 107.726 38.5201C110.503 38.1471 115.233 36.3804 116.756 33.8772C116.795 33.8123 116.833 33.7463 116.868 33.6793L94.8845 33.68C94.8878 33.3106 94.8826 32.9029 94.9039 32.537C94.0904 32.5486 92.9158 32.5912 92.1162 32.5411V26.4157Z" fill="white"/>
<path d="M101.439 29.8158L102.246 29.818C102.447 30.3696 102.609 30.9331 102.776 31.4958C102.819 31.0522 102.802 30.2855 102.805 29.8179L103.581 29.8174C103.585 30.8051 103.614 31.9714 103.558 32.9668C103.556 33.0148 103.516 33.0238 103.463 33.059L102.749 33.0627C102.558 32.4113 102.403 31.8909 102.156 31.2539C102.169 31.8557 102.173 32.4576 102.166 33.0595L101.447 33.0594C101.428 31.9783 101.426 30.897 101.439 29.8158Z" fill="#E92127"/>
<path d="M110.043 29.7728C111.074 29.6562 111.335 30.4254 111.306 31.2908C111.28 32.0665 111.416 32.7729 110.574 33.106C110.167 33.1486 109.992 33.0961 109.617 32.9408C109.198 32.2629 109.198 31.0429 109.445 30.2905C109.545 29.9862 109.769 29.8853 110.043 29.7728Z" fill="#E92127"/>
<path d="M110.095 30.5865C110.2 30.6007 110.218 30.6126 110.311 30.6612C110.458 30.9654 110.416 32.4093 110.332 32.7203C110.214 32.7098 110.198 32.699 110.101 32.6391C109.953 32.3065 109.982 30.9056 110.095 30.5865Z" fill="white"/>
<path d="M107.083 29.8195C107.961 29.8053 109.395 29.6204 108.996 31.0323C108.967 31.1353 108.808 31.2154 108.789 31.3824C109.132 31.7402 109.037 32.5165 109.043 33.0648C108.821 33.0718 108.65 33.0853 108.43 33.0447C108.279 32.9242 108.324 32.9661 108.272 32.7354C108.279 32.4413 108.322 31.8178 108.07 31.6256C107.783 31.8276 107.849 32.7313 107.854 33.0558L107.059 33.0584C107.058 32.0191 107.033 30.8472 107.083 29.8195Z" fill="#E92127"/>
<path d="M107.865 30.3856C108.414 30.4475 108.355 30.7692 108.173 31.1778C108.034 31.1624 108.007 31.1642 107.901 31.0738C107.799 30.8923 107.848 30.605 107.865 30.3856Z" fill="white"/>
<path d="M106.83 33.0579C106.469 33.0421 105.286 33.1412 105.163 32.9654C104.631 32.2068 104.517 29.2765 106.185 29.7957C106.863 30.0068 106.834 30.43 106.831 30.9747C105.599 31.0127 106.328 30.9089 105.956 30.3774L105.869 30.3749C105.704 30.5095 105.751 30.4441 105.672 30.6374C105.681 30.8436 105.691 30.9999 105.717 31.2056L105.823 31.291C106.058 31.2641 106.565 31.2743 106.82 31.272C106.841 31.8383 106.828 32.4855 106.83 33.0579Z" fill="#E92127"/>
<path d="M105.876 31.7857C106.091 32.0301 106.177 32.2345 105.922 32.499C105.737 32.5081 105.688 32.4437 105.643 32.2671C105.698 31.9617 105.676 31.9603 105.876 31.7857Z" fill="white"/>
<path d="M105.672 30.6373C105.681 30.8436 105.691 30.9998 105.717 31.2055L105.823 31.291C105.826 31.4191 105.811 31.6969 105.876 31.7857C105.676 31.9603 105.698 31.9617 105.643 32.2671C105.62 31.7817 105.587 31.1102 105.672 30.6373Z" fill="white"/>
<path d="M99.1874 29.8171L99.9837 29.8111C99.9903 30.2819 99.8511 32.2549 100.164 32.4797L100.298 32.4344C100.434 32.1816 100.368 30.2467 100.376 29.8189L101.15 29.8137L101.155 30.4114C101.163 31 101.277 32.6048 100.856 32.8651C98.6677 34.2187 99.1716 30.4266 99.1874 29.8171Z" fill="#E92127"/>
<path d="M112.649 30.0116C112.847 30.0049 113.141 29.9751 113.311 30.049C113.438 30.2302 113.399 30.2523 113.404 30.4987C113.409 31.0056 113.839 34.3343 111.748 33.0609C111.308 32.7928 111.476 30.6935 111.491 30.0141L112.265 30.0126C112.283 30.7868 112.275 31.561 112.266 32.3364C112.264 32.4772 112.357 32.62 112.47 32.7128L112.547 32.66C112.7 32.2627 112.644 30.5656 112.649 30.0116Z" fill="#E92127"/>
<path d="M97.6793 29.7697C97.7597 29.7654 97.8401 29.7629 97.9206 29.7621C98.3671 29.7594 98.5302 29.9117 98.8258 30.2041L98.9004 30.9068C97.8411 30.9792 98.4026 30.8211 97.9898 30.4906L97.8625 30.5116L97.8043 30.6182C97.869 31.1373 98.7177 31.3481 98.8693 31.9634C99.0368 32.6431 98.7403 32.9382 98.1201 33.1229C97.8434 33.1324 97.5477 33.1111 97.2995 32.9686C96.9973 32.795 96.8416 32.2404 97.0404 31.9468C97.2237 31.8965 97.2626 31.8825 97.447 31.917C97.7732 32.0971 97.6091 32.3629 97.9262 32.4781C98.0702 32.4281 98.0754 32.4533 98.1442 32.3507C98.1467 31.8701 95.7825 30.5529 97.6793 29.7697Z" fill="#E92127"/>
<path d="M113.716 30.0142C114.144 30.0102 115.079 29.9604 115.405 30.2351C115.848 30.6091 115.79 31.8459 115.119 31.9802C114.932 32.0177 114.654 32.022 114.456 32.0299L114.459 33.2518L113.713 33.2598C113.745 32.2024 113.681 31.1033 113.716 30.0142Z" fill="#E92127"/>
<path d="M114.564 30.3922C114.807 30.438 114.831 30.4445 114.97 30.5941C115.044 30.7837 114.989 31.0001 114.96 31.2064C114.742 31.195 114.759 31.228 114.596 31.1176C114.492 30.929 114.546 30.6191 114.564 30.3922Z" fill="white"/>
<path d="M204.991 24.1312C204.485 26.4792 201.139 26.8336 200.319 24.413C200.112 23.8069 200.157 23.143 200.444 22.5705C201.391 20.6618 204.291 20.9152 204.991 23.0858V24.1312ZM202.921 25.7471C204.071 25.5675 204.855 24.4869 204.67 23.3379C204.485 22.1889 203.401 21.4097 202.253 21.6006C201.112 21.7901 200.34 22.8654 200.524 24.0065C200.708 25.1476 201.779 25.9256 202.921 25.7471Z" fill="white"/>
<path d="M201.719 22.4597C202.231 22.5096 203.862 22.3162 203.403 23.3063C203.105 23.9481 203.41 24.1549 203.421 24.8187L203.341 24.873L203.231 24.8267C203.119 24.6949 203.121 24.3782 203.106 24.1891C203.014 23.6204 202.458 23.7961 201.959 23.8002C201.97 24.0286 202.021 24.6497 201.935 24.8363L201.823 24.8723L201.746 24.8009C201.689 24.0675 201.714 23.2044 201.719 22.4597ZM201.978 23.6332C202.253 23.6193 202.796 23.6059 203.034 23.5148C203.541 22.5773 202.595 22.7152 201.982 22.6889L201.978 23.6332Z" fill="white"/>
</g>
<defs>
<clipPath id="clip0_519_7595">
<rect width="112.875" height="35" fill="white" transform="translate(92.1162 14)"/>
</clipPath>
</defs>
</svg>
